<mxfile host="app.diagrams.net" modified="2021-11-01T08:58:59.644Z" agent="5.0 (Windows NT 10.0; Win64; x64) AppleWebKit/537.36 (KHTML, like Gecko) Chrome/92.0.4515.159 Safari/537.36" etag="SvC6mW0CW0P3RkWvzzo1" version="15.5.1" type="github">
  <diagram id="VQLFVTk_Sl5LSSf1PHi-" name="计算器">
    <mxGraphModel dx="574" dy="561" grid="1" gridSize="10" guides="1" tooltips="1" connect="1" arrows="1" fold="1" page="1" pageScale="1" pageWidth="827" pageHeight="1169" math="0" shadow="0">
      <root>
        <mxCell id="0" />
        <mxCell id="1" parent="0" />
        <mxCell id="sGhvdIKNYU4xV770iTYP-1" value="&lt;span style=&quot;color: rgb(50 , 50 , 50) ; font-size: 13px ; background-color: rgba(255 , 255 , 255 , 0.01)&quot;&gt;8+4*3-6/2+1&lt;/span&gt;" style="shape=note;strokeWidth=2;fontSize=14;size=20;whiteSpace=wrap;html=1;fillColor=#fff2cc;strokeColor=#d6b656;fontColor=#666600;rounded=0;verticalAlign=middle;" vertex="1" parent="1">
          <mxGeometry x="220" y="70" width="160" height="50" as="geometry" />
        </mxCell>
        <mxCell id="sGhvdIKNYU4xV770iTYP-2" value="&lt;span style=&quot;color: rgb(50 , 50 , 50) ; font-size: 13px ; background-color: rgba(255 , 255 , 255 , 0.01)&quot;&gt;遍历表达式，并将表达式的数字放入操作数栈，符号放入符号栈中&lt;/span&gt;&lt;div style=&quot;resize: none ; outline: none ; font-size: 13px ; color: rgb(50 , 50 , 50)&quot;&gt;如果要放入的符号栈中的符号优先级小于或等于符号栈顶的符号优先级，那么就将即将放入操作数栈中的数字同当前操作数栈中的栈顶数字拿出来，做运算，同时将运算结果放回到操作数栈中，并将符号栈中的栈顶删除掉，将刚才读取到的符号加入到符号栈中。当运算完成之后，清空数字栈和符号栈&lt;/div&gt;" style="text;html=1;strokeColor=none;fillColor=none;align=center;verticalAlign=middle;whiteSpace=wrap;rounded=0;" vertex="1" parent="1">
          <mxGeometry x="50" y="140" width="510" height="110" as="geometry" />
        </mxCell>
        <mxCell id="sGhvdIKNYU4xV770iTYP-5" value="" style="group" vertex="1" connectable="0" parent="1">
          <mxGeometry x="40" y="350" width="50" height="50" as="geometry" />
        </mxCell>
        <mxCell id="sGhvdIKNYU4xV770iTYP-3" value="8" style="rounded=0;whiteSpace=wrap;html=1;" vertex="1" parent="sGhvdIKNYU4xV770iTYP-5">
          <mxGeometry width="50" height="20" as="geometry" />
        </mxCell>
        <mxCell id="sGhvdIKNYU4xV770iTYP-4" value="操作数栈" style="text;html=1;strokeColor=none;fillColor=none;align=center;verticalAlign=middle;whiteSpace=wrap;rounded=0;" vertex="1" parent="sGhvdIKNYU4xV770iTYP-5">
          <mxGeometry y="20" width="50" height="30" as="geometry" />
        </mxCell>
        <mxCell id="sGhvdIKNYU4xV770iTYP-6" value="" style="group" vertex="1" connectable="0" parent="1">
          <mxGeometry x="110" y="350" width="50" height="50" as="geometry" />
        </mxCell>
        <mxCell id="sGhvdIKNYU4xV770iTYP-7" value="" style="rounded=0;whiteSpace=wrap;html=1;" vertex="1" parent="sGhvdIKNYU4xV770iTYP-6">
          <mxGeometry width="50" height="20" as="geometry" />
        </mxCell>
        <mxCell id="sGhvdIKNYU4xV770iTYP-8" value="符号栈" style="text;html=1;strokeColor=none;fillColor=none;align=center;verticalAlign=middle;whiteSpace=wrap;rounded=0;" vertex="1" parent="sGhvdIKNYU4xV770iTYP-6">
          <mxGeometry y="20" width="50" height="30" as="geometry" />
        </mxCell>
        <mxCell id="sGhvdIKNYU4xV770iTYP-9" value="" style="group" vertex="1" connectable="0" parent="1">
          <mxGeometry x="210" y="350" width="50" height="50" as="geometry" />
        </mxCell>
        <mxCell id="sGhvdIKNYU4xV770iTYP-10" value="8" style="rounded=0;whiteSpace=wrap;html=1;" vertex="1" parent="sGhvdIKNYU4xV770iTYP-9">
          <mxGeometry width="50" height="20" as="geometry" />
        </mxCell>
        <mxCell id="sGhvdIKNYU4xV770iTYP-11" value="操作数栈" style="text;html=1;strokeColor=none;fillColor=none;align=center;verticalAlign=middle;whiteSpace=wrap;rounded=0;" vertex="1" parent="sGhvdIKNYU4xV770iTYP-9">
          <mxGeometry y="20" width="50" height="30" as="geometry" />
        </mxCell>
        <mxCell id="sGhvdIKNYU4xV770iTYP-12" value="" style="group" vertex="1" connectable="0" parent="1">
          <mxGeometry x="280" y="350" width="50" height="50" as="geometry" />
        </mxCell>
        <mxCell id="sGhvdIKNYU4xV770iTYP-13" value="+" style="rounded=0;whiteSpace=wrap;html=1;" vertex="1" parent="sGhvdIKNYU4xV770iTYP-12">
          <mxGeometry width="50" height="20" as="geometry" />
        </mxCell>
        <mxCell id="sGhvdIKNYU4xV770iTYP-14" value="符号栈" style="text;html=1;strokeColor=none;fillColor=none;align=center;verticalAlign=middle;whiteSpace=wrap;rounded=0;" vertex="1" parent="sGhvdIKNYU4xV770iTYP-12">
          <mxGeometry y="20" width="50" height="30" as="geometry" />
        </mxCell>
        <mxCell id="sGhvdIKNYU4xV770iTYP-15" value="" style="group" vertex="1" connectable="0" parent="1">
          <mxGeometry x="370" y="350" width="50" height="50" as="geometry" />
        </mxCell>
        <mxCell id="sGhvdIKNYU4xV770iTYP-16" value="8" style="rounded=0;whiteSpace=wrap;html=1;" vertex="1" parent="sGhvdIKNYU4xV770iTYP-15">
          <mxGeometry width="50" height="20" as="geometry" />
        </mxCell>
        <mxCell id="sGhvdIKNYU4xV770iTYP-17" value="操作数栈" style="text;html=1;strokeColor=none;fillColor=none;align=center;verticalAlign=middle;whiteSpace=wrap;rounded=0;" vertex="1" parent="sGhvdIKNYU4xV770iTYP-15">
          <mxGeometry y="20" width="50" height="30" as="geometry" />
        </mxCell>
        <mxCell id="sGhvdIKNYU4xV770iTYP-18" value="" style="group" vertex="1" connectable="0" parent="1">
          <mxGeometry x="440" y="350" width="50" height="50" as="geometry" />
        </mxCell>
        <mxCell id="sGhvdIKNYU4xV770iTYP-19" value="+" style="rounded=0;whiteSpace=wrap;html=1;" vertex="1" parent="sGhvdIKNYU4xV770iTYP-18">
          <mxGeometry width="50" height="20" as="geometry" />
        </mxCell>
        <mxCell id="sGhvdIKNYU4xV770iTYP-20" value="符号栈" style="text;html=1;strokeColor=none;fillColor=none;align=center;verticalAlign=middle;whiteSpace=wrap;rounded=0;" vertex="1" parent="sGhvdIKNYU4xV770iTYP-18">
          <mxGeometry y="20" width="50" height="30" as="geometry" />
        </mxCell>
        <mxCell id="sGhvdIKNYU4xV770iTYP-22" value="4" style="rounded=0;whiteSpace=wrap;html=1;" vertex="1" parent="1">
          <mxGeometry x="370" y="330" width="50" height="20" as="geometry" />
        </mxCell>
        <mxCell id="sGhvdIKNYU4xV770iTYP-23" value="" style="group" vertex="1" connectable="0" parent="1">
          <mxGeometry x="530" y="350" width="50" height="50" as="geometry" />
        </mxCell>
        <mxCell id="sGhvdIKNYU4xV770iTYP-24" value="8" style="rounded=0;whiteSpace=wrap;html=1;" vertex="1" parent="sGhvdIKNYU4xV770iTYP-23">
          <mxGeometry width="50" height="20" as="geometry" />
        </mxCell>
        <mxCell id="sGhvdIKNYU4xV770iTYP-25" value="操作数栈" style="text;html=1;strokeColor=none;fillColor=none;align=center;verticalAlign=middle;whiteSpace=wrap;rounded=0;" vertex="1" parent="sGhvdIKNYU4xV770iTYP-23">
          <mxGeometry y="20" width="50" height="30" as="geometry" />
        </mxCell>
        <mxCell id="sGhvdIKNYU4xV770iTYP-26" value="" style="group" vertex="1" connectable="0" parent="1">
          <mxGeometry x="600" y="350" width="50" height="50" as="geometry" />
        </mxCell>
        <mxCell id="sGhvdIKNYU4xV770iTYP-27" value="+" style="rounded=0;whiteSpace=wrap;html=1;" vertex="1" parent="sGhvdIKNYU4xV770iTYP-26">
          <mxGeometry width="50" height="20" as="geometry" />
        </mxCell>
        <mxCell id="sGhvdIKNYU4xV770iTYP-28" value="符号栈" style="text;html=1;strokeColor=none;fillColor=none;align=center;verticalAlign=middle;whiteSpace=wrap;rounded=0;" vertex="1" parent="sGhvdIKNYU4xV770iTYP-26">
          <mxGeometry y="20" width="50" height="30" as="geometry" />
        </mxCell>
        <mxCell id="sGhvdIKNYU4xV770iTYP-29" value="4" style="rounded=0;whiteSpace=wrap;html=1;" vertex="1" parent="1">
          <mxGeometry x="530" y="330" width="50" height="20" as="geometry" />
        </mxCell>
        <mxCell id="sGhvdIKNYU4xV770iTYP-30" value="*" style="rounded=0;whiteSpace=wrap;html=1;" vertex="1" parent="1">
          <mxGeometry x="600" y="330" width="50" height="20" as="geometry" />
        </mxCell>
        <mxCell id="sGhvdIKNYU4xV770iTYP-31" value="" style="group" vertex="1" connectable="0" parent="1">
          <mxGeometry x="40" y="535" width="50" height="50" as="geometry" />
        </mxCell>
        <mxCell id="sGhvdIKNYU4xV770iTYP-32" value="8" style="rounded=0;whiteSpace=wrap;html=1;" vertex="1" parent="sGhvdIKNYU4xV770iTYP-31">
          <mxGeometry width="50" height="20" as="geometry" />
        </mxCell>
        <mxCell id="sGhvdIKNYU4xV770iTYP-33" value="操作数栈" style="text;html=1;strokeColor=none;fillColor=none;align=center;verticalAlign=middle;whiteSpace=wrap;rounded=0;" vertex="1" parent="sGhvdIKNYU4xV770iTYP-31">
          <mxGeometry y="20" width="50" height="30" as="geometry" />
        </mxCell>
        <mxCell id="sGhvdIKNYU4xV770iTYP-34" value="" style="group" vertex="1" connectable="0" parent="1">
          <mxGeometry x="110" y="535" width="50" height="50" as="geometry" />
        </mxCell>
        <mxCell id="sGhvdIKNYU4xV770iTYP-35" value="+" style="rounded=0;whiteSpace=wrap;html=1;" vertex="1" parent="sGhvdIKNYU4xV770iTYP-34">
          <mxGeometry width="50" height="20" as="geometry" />
        </mxCell>
        <mxCell id="sGhvdIKNYU4xV770iTYP-36" value="符号栈" style="text;html=1;strokeColor=none;fillColor=none;align=center;verticalAlign=middle;whiteSpace=wrap;rounded=0;" vertex="1" parent="sGhvdIKNYU4xV770iTYP-34">
          <mxGeometry y="20" width="50" height="30" as="geometry" />
        </mxCell>
        <mxCell id="sGhvdIKNYU4xV770iTYP-37" value="4" style="rounded=0;whiteSpace=wrap;html=1;" vertex="1" parent="1">
          <mxGeometry x="40" y="515" width="50" height="20" as="geometry" />
        </mxCell>
        <mxCell id="sGhvdIKNYU4xV770iTYP-38" value="*" style="rounded=0;whiteSpace=wrap;html=1;" vertex="1" parent="1">
          <mxGeometry x="110" y="515" width="50" height="20" as="geometry" />
        </mxCell>
        <mxCell id="sGhvdIKNYU4xV770iTYP-39" value="3" style="rounded=0;whiteSpace=wrap;html=1;" vertex="1" parent="1">
          <mxGeometry x="40" y="495" width="50" height="20" as="geometry" />
        </mxCell>
        <mxCell id="sGhvdIKNYU4xV770iTYP-40" value="-" style="rounded=0;whiteSpace=wrap;html=1;" vertex="1" parent="1">
          <mxGeometry x="120" y="475" width="50" height="20" as="geometry" />
        </mxCell>
        <mxCell id="sGhvdIKNYU4xV770iTYP-42" value="‘-’优先级小于‘*’，所以这里会将符号栈中的&#39;*&#39;弹出，操作数栈中的&#39;3&#39;和&#39;4&#39;弹出，做3*4运算。然后再将3*4计算结果放入到操作数栈，将&#39;-&#39;号放入符号栈" style="shape=note;strokeWidth=2;fontSize=14;size=20;whiteSpace=wrap;html=1;fillColor=#fff2cc;strokeColor=#d6b656;fontColor=#666600;rounded=0;verticalAlign=middle;" vertex="1" parent="1">
          <mxGeometry x="200" y="475" width="290" height="90" as="geometry" />
        </mxCell>
        <mxCell id="sGhvdIKNYU4xV770iTYP-43" value="" style="group" vertex="1" connectable="0" parent="1">
          <mxGeometry x="520" y="525" width="50" height="50" as="geometry" />
        </mxCell>
        <mxCell id="sGhvdIKNYU4xV770iTYP-44" value="8" style="rounded=0;whiteSpace=wrap;html=1;" vertex="1" parent="sGhvdIKNYU4xV770iTYP-43">
          <mxGeometry width="50" height="20" as="geometry" />
        </mxCell>
        <mxCell id="sGhvdIKNYU4xV770iTYP-45" value="操作数栈" style="text;html=1;strokeColor=none;fillColor=none;align=center;verticalAlign=middle;whiteSpace=wrap;rounded=0;" vertex="1" parent="sGhvdIKNYU4xV770iTYP-43">
          <mxGeometry y="20" width="50" height="30" as="geometry" />
        </mxCell>
        <mxCell id="sGhvdIKNYU4xV770iTYP-46" value="" style="group" vertex="1" connectable="0" parent="1">
          <mxGeometry x="590" y="525" width="50" height="50" as="geometry" />
        </mxCell>
        <mxCell id="sGhvdIKNYU4xV770iTYP-47" value="+" style="rounded=0;whiteSpace=wrap;html=1;" vertex="1" parent="sGhvdIKNYU4xV770iTYP-46">
          <mxGeometry width="50" height="20" as="geometry" />
        </mxCell>
        <mxCell id="sGhvdIKNYU4xV770iTYP-48" value="符号栈" style="text;html=1;strokeColor=none;fillColor=none;align=center;verticalAlign=middle;whiteSpace=wrap;rounded=0;" vertex="1" parent="sGhvdIKNYU4xV770iTYP-46">
          <mxGeometry y="20" width="50" height="30" as="geometry" />
        </mxCell>
        <mxCell id="sGhvdIKNYU4xV770iTYP-49" value="12" style="rounded=0;whiteSpace=wrap;html=1;" vertex="1" parent="1">
          <mxGeometry x="520" y="505" width="50" height="20" as="geometry" />
        </mxCell>
        <mxCell id="sGhvdIKNYU4xV770iTYP-52" value="-" style="rounded=0;whiteSpace=wrap;html=1;" vertex="1" parent="1">
          <mxGeometry x="590" y="505" width="50" height="20" as="geometry" />
        </mxCell>
        <mxCell id="sGhvdIKNYU4xV770iTYP-54" value="" style="group" vertex="1" connectable="0" parent="1">
          <mxGeometry x="40" y="690" width="50" height="50" as="geometry" />
        </mxCell>
        <mxCell id="sGhvdIKNYU4xV770iTYP-55" value="8" style="rounded=0;whiteSpace=wrap;html=1;" vertex="1" parent="sGhvdIKNYU4xV770iTYP-54">
          <mxGeometry width="50" height="20" as="geometry" />
        </mxCell>
        <mxCell id="sGhvdIKNYU4xV770iTYP-56" value="操作数栈" style="text;html=1;strokeColor=none;fillColor=none;align=center;verticalAlign=middle;whiteSpace=wrap;rounded=0;" vertex="1" parent="sGhvdIKNYU4xV770iTYP-54">
          <mxGeometry y="20" width="50" height="30" as="geometry" />
        </mxCell>
        <mxCell id="sGhvdIKNYU4xV770iTYP-57" value="" style="group" vertex="1" connectable="0" parent="1">
          <mxGeometry x="110" y="690" width="50" height="50" as="geometry" />
        </mxCell>
        <mxCell id="sGhvdIKNYU4xV770iTYP-58" value="+" style="rounded=0;whiteSpace=wrap;html=1;" vertex="1" parent="sGhvdIKNYU4xV770iTYP-57">
          <mxGeometry width="50" height="20" as="geometry" />
        </mxCell>
        <mxCell id="sGhvdIKNYU4xV770iTYP-59" value="符号栈" style="text;html=1;strokeColor=none;fillColor=none;align=center;verticalAlign=middle;whiteSpace=wrap;rounded=0;" vertex="1" parent="sGhvdIKNYU4xV770iTYP-57">
          <mxGeometry y="20" width="50" height="30" as="geometry" />
        </mxCell>
        <mxCell id="sGhvdIKNYU4xV770iTYP-60" value="12" style="rounded=0;whiteSpace=wrap;html=1;" vertex="1" parent="1">
          <mxGeometry x="40" y="670" width="50" height="20" as="geometry" />
        </mxCell>
        <mxCell id="sGhvdIKNYU4xV770iTYP-61" value="-" style="rounded=0;whiteSpace=wrap;html=1;" vertex="1" parent="1">
          <mxGeometry x="110" y="670" width="50" height="20" as="geometry" />
        </mxCell>
        <mxCell id="sGhvdIKNYU4xV770iTYP-62" value="6" style="rounded=0;whiteSpace=wrap;html=1;" vertex="1" parent="1">
          <mxGeometry x="40" y="650" width="50" height="20" as="geometry" />
        </mxCell>
        <mxCell id="sGhvdIKNYU4xV770iTYP-63" value="" style="group" vertex="1" connectable="0" parent="1">
          <mxGeometry x="210" y="690" width="50" height="50" as="geometry" />
        </mxCell>
        <mxCell id="sGhvdIKNYU4xV770iTYP-64" value="8" style="rounded=0;whiteSpace=wrap;html=1;" vertex="1" parent="sGhvdIKNYU4xV770iTYP-63">
          <mxGeometry width="50" height="20" as="geometry" />
        </mxCell>
        <mxCell id="sGhvdIKNYU4xV770iTYP-65" value="操作数栈" style="text;html=1;strokeColor=none;fillColor=none;align=center;verticalAlign=middle;whiteSpace=wrap;rounded=0;" vertex="1" parent="sGhvdIKNYU4xV770iTYP-63">
          <mxGeometry y="20" width="50" height="30" as="geometry" />
        </mxCell>
        <mxCell id="sGhvdIKNYU4xV770iTYP-66" value="" style="group" vertex="1" connectable="0" parent="1">
          <mxGeometry x="280" y="690" width="50" height="50" as="geometry" />
        </mxCell>
        <mxCell id="sGhvdIKNYU4xV770iTYP-67" value="+" style="rounded=0;whiteSpace=wrap;html=1;" vertex="1" parent="sGhvdIKNYU4xV770iTYP-66">
          <mxGeometry width="50" height="20" as="geometry" />
        </mxCell>
        <mxCell id="sGhvdIKNYU4xV770iTYP-68" value="符号栈" style="text;html=1;strokeColor=none;fillColor=none;align=center;verticalAlign=middle;whiteSpace=wrap;rounded=0;" vertex="1" parent="sGhvdIKNYU4xV770iTYP-66">
          <mxGeometry y="20" width="50" height="30" as="geometry" />
        </mxCell>
        <mxCell id="sGhvdIKNYU4xV770iTYP-69" value="12" style="rounded=0;whiteSpace=wrap;html=1;" vertex="1" parent="1">
          <mxGeometry x="210" y="670" width="50" height="20" as="geometry" />
        </mxCell>
        <mxCell id="sGhvdIKNYU4xV770iTYP-70" value="-" style="rounded=0;whiteSpace=wrap;html=1;" vertex="1" parent="1">
          <mxGeometry x="280" y="670" width="50" height="20" as="geometry" />
        </mxCell>
        <mxCell id="sGhvdIKNYU4xV770iTYP-71" value="6" style="rounded=0;whiteSpace=wrap;html=1;" vertex="1" parent="1">
          <mxGeometry x="210" y="650" width="50" height="20" as="geometry" />
        </mxCell>
        <mxCell id="sGhvdIKNYU4xV770iTYP-72" value="/" style="rounded=0;whiteSpace=wrap;html=1;" vertex="1" parent="1">
          <mxGeometry x="280" y="650" width="50" height="20" as="geometry" />
        </mxCell>
        <mxCell id="sGhvdIKNYU4xV770iTYP-73" value="" style="group" vertex="1" connectable="0" parent="1">
          <mxGeometry x="390" y="690" width="50" height="50" as="geometry" />
        </mxCell>
        <mxCell id="sGhvdIKNYU4xV770iTYP-74" value="8" style="rounded=0;whiteSpace=wrap;html=1;" vertex="1" parent="sGhvdIKNYU4xV770iTYP-73">
          <mxGeometry width="50" height="20" as="geometry" />
        </mxCell>
        <mxCell id="sGhvdIKNYU4xV770iTYP-75" value="操作数栈" style="text;html=1;strokeColor=none;fillColor=none;align=center;verticalAlign=middle;whiteSpace=wrap;rounded=0;" vertex="1" parent="sGhvdIKNYU4xV770iTYP-73">
          <mxGeometry y="20" width="50" height="30" as="geometry" />
        </mxCell>
        <mxCell id="sGhvdIKNYU4xV770iTYP-76" value="" style="group" vertex="1" connectable="0" parent="1">
          <mxGeometry x="460" y="690" width="50" height="50" as="geometry" />
        </mxCell>
        <mxCell id="sGhvdIKNYU4xV770iTYP-77" value="+" style="rounded=0;whiteSpace=wrap;html=1;" vertex="1" parent="sGhvdIKNYU4xV770iTYP-76">
          <mxGeometry width="50" height="20" as="geometry" />
        </mxCell>
        <mxCell id="sGhvdIKNYU4xV770iTYP-78" value="符号栈" style="text;html=1;strokeColor=none;fillColor=none;align=center;verticalAlign=middle;whiteSpace=wrap;rounded=0;" vertex="1" parent="sGhvdIKNYU4xV770iTYP-76">
          <mxGeometry y="20" width="50" height="30" as="geometry" />
        </mxCell>
        <mxCell id="sGhvdIKNYU4xV770iTYP-79" value="12" style="rounded=0;whiteSpace=wrap;html=1;" vertex="1" parent="1">
          <mxGeometry x="390" y="670" width="50" height="20" as="geometry" />
        </mxCell>
        <mxCell id="sGhvdIKNYU4xV770iTYP-80" value="-" style="rounded=0;whiteSpace=wrap;html=1;" vertex="1" parent="1">
          <mxGeometry x="460" y="670" width="50" height="20" as="geometry" />
        </mxCell>
        <mxCell id="sGhvdIKNYU4xV770iTYP-81" value="6" style="rounded=0;whiteSpace=wrap;html=1;" vertex="1" parent="1">
          <mxGeometry x="390" y="650" width="50" height="20" as="geometry" />
        </mxCell>
        <mxCell id="sGhvdIKNYU4xV770iTYP-82" value="/" style="rounded=0;whiteSpace=wrap;html=1;" vertex="1" parent="1">
          <mxGeometry x="460" y="650" width="50" height="20" as="geometry" />
        </mxCell>
        <mxCell id="sGhvdIKNYU4xV770iTYP-83" value="2" style="rounded=0;whiteSpace=wrap;html=1;" vertex="1" parent="1">
          <mxGeometry x="390" y="630" width="50" height="20" as="geometry" />
        </mxCell>
        <mxCell id="sGhvdIKNYU4xV770iTYP-91" value="" style="group" vertex="1" connectable="0" parent="1">
          <mxGeometry x="570" y="690" width="50" height="50" as="geometry" />
        </mxCell>
        <mxCell id="sGhvdIKNYU4xV770iTYP-92" value="8" style="rounded=0;whiteSpace=wrap;html=1;" vertex="1" parent="sGhvdIKNYU4xV770iTYP-91">
          <mxGeometry width="50" height="20" as="geometry" />
        </mxCell>
        <mxCell id="sGhvdIKNYU4xV770iTYP-93" value="操作数栈" style="text;html=1;strokeColor=none;fillColor=none;align=center;verticalAlign=middle;whiteSpace=wrap;rounded=0;" vertex="1" parent="sGhvdIKNYU4xV770iTYP-91">
          <mxGeometry y="20" width="50" height="30" as="geometry" />
        </mxCell>
        <mxCell id="sGhvdIKNYU4xV770iTYP-94" value="" style="group" vertex="1" connectable="0" parent="1">
          <mxGeometry x="640" y="690" width="50" height="50" as="geometry" />
        </mxCell>
        <mxCell id="sGhvdIKNYU4xV770iTYP-95" value="+" style="rounded=0;whiteSpace=wrap;html=1;" vertex="1" parent="sGhvdIKNYU4xV770iTYP-94">
          <mxGeometry width="50" height="20" as="geometry" />
        </mxCell>
        <mxCell id="sGhvdIKNYU4xV770iTYP-96" value="符号栈" style="text;html=1;strokeColor=none;fillColor=none;align=center;verticalAlign=middle;whiteSpace=wrap;rounded=0;" vertex="1" parent="sGhvdIKNYU4xV770iTYP-94">
          <mxGeometry y="20" width="50" height="30" as="geometry" />
        </mxCell>
        <mxCell id="sGhvdIKNYU4xV770iTYP-97" value="12" style="rounded=0;whiteSpace=wrap;html=1;" vertex="1" parent="1">
          <mxGeometry x="570" y="670" width="50" height="20" as="geometry" />
        </mxCell>
        <mxCell id="sGhvdIKNYU4xV770iTYP-98" value="-" style="rounded=0;whiteSpace=wrap;html=1;" vertex="1" parent="1">
          <mxGeometry x="640" y="670" width="50" height="20" as="geometry" />
        </mxCell>
        <mxCell id="sGhvdIKNYU4xV770iTYP-99" value="6" style="rounded=0;whiteSpace=wrap;html=1;" vertex="1" parent="1">
          <mxGeometry x="570" y="650" width="50" height="20" as="geometry" />
        </mxCell>
        <mxCell id="sGhvdIKNYU4xV770iTYP-100" value="/" style="rounded=0;whiteSpace=wrap;html=1;" vertex="1" parent="1">
          <mxGeometry x="640" y="650" width="50" height="20" as="geometry" />
        </mxCell>
        <mxCell id="sGhvdIKNYU4xV770iTYP-101" value="2" style="rounded=0;whiteSpace=wrap;html=1;" vertex="1" parent="1">
          <mxGeometry x="570" y="630" width="50" height="20" as="geometry" />
        </mxCell>
        <mxCell id="sGhvdIKNYU4xV770iTYP-102" value="+" style="rounded=0;whiteSpace=wrap;html=1;" vertex="1" parent="1">
          <mxGeometry x="650" y="620" width="50" height="20" as="geometry" />
        </mxCell>
        <mxCell id="sGhvdIKNYU4xV770iTYP-103" value="‘+’优先级小于‘/’，所以这里会将符号栈中的&#39;/&#39;弹出，操作数栈中的&#39;6&#39;和&#39;2&#39;弹出，做6/2运算。然后再将6/2计算结果放入到操作数栈，将&#39;+&#39;号放入符号栈" style="shape=note;strokeWidth=2;fontSize=14;size=20;whiteSpace=wrap;html=1;fillColor=#fff2cc;strokeColor=#d6b656;fontColor=#666600;rounded=0;verticalAlign=middle;" vertex="1" parent="1">
          <mxGeometry x="40" y="790" width="290" height="90" as="geometry" />
        </mxCell>
        <mxCell id="sGhvdIKNYU4xV770iTYP-104" value="" style="group" vertex="1" connectable="0" parent="1">
          <mxGeometry x="430" y="845" width="50" height="50" as="geometry" />
        </mxCell>
        <mxCell id="sGhvdIKNYU4xV770iTYP-105" value="8" style="rounded=0;whiteSpace=wrap;html=1;" vertex="1" parent="sGhvdIKNYU4xV770iTYP-104">
          <mxGeometry width="50" height="20" as="geometry" />
        </mxCell>
        <mxCell id="sGhvdIKNYU4xV770iTYP-106" value="操作数栈" style="text;html=1;strokeColor=none;fillColor=none;align=center;verticalAlign=middle;whiteSpace=wrap;rounded=0;" vertex="1" parent="sGhvdIKNYU4xV770iTYP-104">
          <mxGeometry y="20" width="50" height="30" as="geometry" />
        </mxCell>
        <mxCell id="sGhvdIKNYU4xV770iTYP-107" value="" style="group" vertex="1" connectable="0" parent="1">
          <mxGeometry x="500" y="845" width="50" height="50" as="geometry" />
        </mxCell>
        <mxCell id="sGhvdIKNYU4xV770iTYP-108" value="+" style="rounded=0;whiteSpace=wrap;html=1;" vertex="1" parent="sGhvdIKNYU4xV770iTYP-107">
          <mxGeometry width="50" height="20" as="geometry" />
        </mxCell>
        <mxCell id="sGhvdIKNYU4xV770iTYP-109" value="符号栈" style="text;html=1;strokeColor=none;fillColor=none;align=center;verticalAlign=middle;whiteSpace=wrap;rounded=0;" vertex="1" parent="sGhvdIKNYU4xV770iTYP-107">
          <mxGeometry y="20" width="50" height="30" as="geometry" />
        </mxCell>
        <mxCell id="sGhvdIKNYU4xV770iTYP-110" value="12" style="rounded=0;whiteSpace=wrap;html=1;" vertex="1" parent="1">
          <mxGeometry x="430" y="825" width="50" height="20" as="geometry" />
        </mxCell>
        <mxCell id="sGhvdIKNYU4xV770iTYP-111" value="-" style="rounded=0;whiteSpace=wrap;html=1;" vertex="1" parent="1">
          <mxGeometry x="500" y="825" width="50" height="20" as="geometry" />
        </mxCell>
        <mxCell id="sGhvdIKNYU4xV770iTYP-112" value="3" style="rounded=0;whiteSpace=wrap;html=1;" vertex="1" parent="1">
          <mxGeometry x="430" y="805" width="50" height="20" as="geometry" />
        </mxCell>
        <mxCell id="sGhvdIKNYU4xV770iTYP-115" value="+" style="rounded=0;whiteSpace=wrap;html=1;" vertex="1" parent="1">
          <mxGeometry x="500" y="805" width="50" height="20" as="geometry" />
        </mxCell>
        <mxCell id="sGhvdIKNYU4xV770iTYP-116" value="" style="group" vertex="1" connectable="0" parent="1">
          <mxGeometry x="60" y="1010" width="50" height="50" as="geometry" />
        </mxCell>
        <mxCell id="sGhvdIKNYU4xV770iTYP-117" value="8" style="rounded=0;whiteSpace=wrap;html=1;" vertex="1" parent="sGhvdIKNYU4xV770iTYP-116">
          <mxGeometry width="50" height="20" as="geometry" />
        </mxCell>
        <mxCell id="sGhvdIKNYU4xV770iTYP-118" value="操作数栈" style="text;html=1;strokeColor=none;fillColor=none;align=center;verticalAlign=middle;whiteSpace=wrap;rounded=0;" vertex="1" parent="sGhvdIKNYU4xV770iTYP-116">
          <mxGeometry y="20" width="50" height="30" as="geometry" />
        </mxCell>
        <mxCell id="sGhvdIKNYU4xV770iTYP-119" value="" style="group" vertex="1" connectable="0" parent="1">
          <mxGeometry x="130" y="1010" width="50" height="50" as="geometry" />
        </mxCell>
        <mxCell id="sGhvdIKNYU4xV770iTYP-120" value="+" style="rounded=0;whiteSpace=wrap;html=1;" vertex="1" parent="sGhvdIKNYU4xV770iTYP-119">
          <mxGeometry width="50" height="20" as="geometry" />
        </mxCell>
        <mxCell id="sGhvdIKNYU4xV770iTYP-121" value="符号栈" style="text;html=1;strokeColor=none;fillColor=none;align=center;verticalAlign=middle;whiteSpace=wrap;rounded=0;" vertex="1" parent="sGhvdIKNYU4xV770iTYP-119">
          <mxGeometry y="20" width="50" height="30" as="geometry" />
        </mxCell>
        <mxCell id="sGhvdIKNYU4xV770iTYP-122" value="1" style="rounded=0;whiteSpace=wrap;html=1;" vertex="1" parent="1">
          <mxGeometry x="250" y="980" width="50" height="20" as="geometry" />
        </mxCell>
        <mxCell id="sGhvdIKNYU4xV770iTYP-123" value="-" style="rounded=0;whiteSpace=wrap;html=1;" vertex="1" parent="1">
          <mxGeometry x="130" y="990" width="50" height="20" as="geometry" />
        </mxCell>
        <mxCell id="sGhvdIKNYU4xV770iTYP-124" value="3" style="rounded=0;whiteSpace=wrap;html=1;" vertex="1" parent="1">
          <mxGeometry x="400" y="980" width="50" height="20" as="geometry" />
        </mxCell>
        <mxCell id="sGhvdIKNYU4xV770iTYP-125" value="+" style="rounded=0;whiteSpace=wrap;html=1;" vertex="1" parent="1">
          <mxGeometry x="320" y="980" width="50" height="20" as="geometry" />
        </mxCell>
        <mxCell id="sGhvdIKNYU4xV770iTYP-126" value="12" style="rounded=0;whiteSpace=wrap;html=1;strokeColor=#000000;fontColor=#000000;" vertex="1" parent="1">
          <mxGeometry x="60" y="990" width="50" height="20" as="geometry" />
        </mxCell>
        <mxCell id="sGhvdIKNYU4xV770iTYP-127" value="3" style="rounded=0;whiteSpace=wrap;html=1;fontColor=#CCCCCC;dashed=1;strokeColor=#CCCCCC;" vertex="1" parent="1">
          <mxGeometry x="60" y="970" width="50" height="20" as="geometry" />
        </mxCell>
        <mxCell id="sGhvdIKNYU4xV770iTYP-128" value="+" style="rounded=0;whiteSpace=wrap;html=1;dashed=1;strokeColor=#CCCCCC;fontColor=#CCCCCC;" vertex="1" parent="1">
          <mxGeometry x="130" y="970" width="50" height="20" as="geometry" />
        </mxCell>
        <mxCell id="sGhvdIKNYU4xV770iTYP-129" value="" style="group" vertex="1" connectable="0" parent="1">
          <mxGeometry x="510" y="1010" width="50" height="50" as="geometry" />
        </mxCell>
        <mxCell id="sGhvdIKNYU4xV770iTYP-130" value="8" style="rounded=0;whiteSpace=wrap;html=1;" vertex="1" parent="sGhvdIKNYU4xV770iTYP-129">
          <mxGeometry width="50" height="20" as="geometry" />
        </mxCell>
        <mxCell id="sGhvdIKNYU4xV770iTYP-131" value="操作数栈" style="text;html=1;strokeColor=none;fillColor=none;align=center;verticalAlign=middle;whiteSpace=wrap;rounded=0;" vertex="1" parent="sGhvdIKNYU4xV770iTYP-129">
          <mxGeometry y="20" width="50" height="30" as="geometry" />
        </mxCell>
        <mxCell id="sGhvdIKNYU4xV770iTYP-132" value="" style="group" vertex="1" connectable="0" parent="1">
          <mxGeometry x="580" y="1010" width="50" height="50" as="geometry" />
        </mxCell>
        <mxCell id="sGhvdIKNYU4xV770iTYP-133" value="+" style="rounded=0;whiteSpace=wrap;html=1;" vertex="1" parent="sGhvdIKNYU4xV770iTYP-132">
          <mxGeometry width="50" height="20" as="geometry" />
        </mxCell>
        <mxCell id="sGhvdIKNYU4xV770iTYP-134" value="符号栈" style="text;html=1;strokeColor=none;fillColor=none;align=center;verticalAlign=middle;whiteSpace=wrap;rounded=0;" vertex="1" parent="sGhvdIKNYU4xV770iTYP-132">
          <mxGeometry y="20" width="50" height="30" as="geometry" />
        </mxCell>
        <mxCell id="sGhvdIKNYU4xV770iTYP-135" value="-" style="rounded=0;whiteSpace=wrap;html=1;" vertex="1" parent="1">
          <mxGeometry x="580" y="990" width="50" height="20" as="geometry" />
        </mxCell>
        <mxCell id="sGhvdIKNYU4xV770iTYP-139" value="12" style="rounded=0;whiteSpace=wrap;html=1;" vertex="1" parent="1">
          <mxGeometry x="510" y="990" width="50" height="20" as="geometry" />
        </mxCell>
        <mxCell id="sGhvdIKNYU4xV770iTYP-140" value="1" style="rounded=0;whiteSpace=wrap;html=1;" vertex="1" parent="1">
          <mxGeometry x="430" y="785" width="50" height="20" as="geometry" />
        </mxCell>
        <mxCell id="sGhvdIKNYU4xV770iTYP-141" value="1" style="rounded=0;whiteSpace=wrap;html=1;fontColor=#CCCCCC;strokeColor=#CCCCCC;dashed=1;" vertex="1" parent="1">
          <mxGeometry x="60" y="950" width="50" height="20" as="geometry" />
        </mxCell>
        <mxCell id="sGhvdIKNYU4xV770iTYP-144" value="4" style="rounded=0;whiteSpace=wrap;html=1;" vertex="1" parent="1">
          <mxGeometry x="510" y="970" width="50" height="20" as="geometry" />
        </mxCell>
        <mxCell id="sGhvdIKNYU4xV770iTYP-150" value="" style="group" vertex="1" connectable="0" parent="1">
          <mxGeometry x="60" y="1150" width="50" height="50" as="geometry" />
        </mxCell>
        <mxCell id="sGhvdIKNYU4xV770iTYP-151" value="8" style="rounded=0;whiteSpace=wrap;html=1;" vertex="1" parent="sGhvdIKNYU4xV770iTYP-150">
          <mxGeometry width="50" height="20" as="geometry" />
        </mxCell>
        <mxCell id="sGhvdIKNYU4xV770iTYP-152" value="操作数栈" style="text;html=1;strokeColor=none;fillColor=none;align=center;verticalAlign=middle;whiteSpace=wrap;rounded=0;" vertex="1" parent="sGhvdIKNYU4xV770iTYP-150">
          <mxGeometry y="20" width="50" height="30" as="geometry" />
        </mxCell>
        <mxCell id="sGhvdIKNYU4xV770iTYP-153" value="" style="group" vertex="1" connectable="0" parent="1">
          <mxGeometry x="130" y="1150" width="50" height="50" as="geometry" />
        </mxCell>
        <mxCell id="sGhvdIKNYU4xV770iTYP-154" value="+" style="rounded=0;whiteSpace=wrap;html=1;" vertex="1" parent="sGhvdIKNYU4xV770iTYP-153">
          <mxGeometry width="50" height="20" as="geometry" />
        </mxCell>
        <mxCell id="sGhvdIKNYU4xV770iTYP-155" value="符号栈" style="text;html=1;strokeColor=none;fillColor=none;align=center;verticalAlign=middle;whiteSpace=wrap;rounded=0;" vertex="1" parent="sGhvdIKNYU4xV770iTYP-153">
          <mxGeometry y="20" width="50" height="30" as="geometry" />
        </mxCell>
        <mxCell id="sGhvdIKNYU4xV770iTYP-156" value="-" style="rounded=0;whiteSpace=wrap;html=1;strokeColor=#CCCCCC;dashed=1;fontColor=#CCCCCC;" vertex="1" parent="1">
          <mxGeometry x="130" y="1130" width="50" height="20" as="geometry" />
        </mxCell>
        <mxCell id="sGhvdIKNYU4xV770iTYP-157" value="12" style="rounded=0;whiteSpace=wrap;html=1;fontColor=#CCCCCC;strokeColor=#CCCCCC;dashed=1;" vertex="1" parent="1">
          <mxGeometry x="60" y="1130" width="50" height="20" as="geometry" />
        </mxCell>
        <mxCell id="sGhvdIKNYU4xV770iTYP-158" value="4" style="rounded=0;whiteSpace=wrap;html=1;fontColor=#CCCCCC;strokeColor=#CCCCCC;dashed=1;" vertex="1" parent="1">
          <mxGeometry x="60" y="1110" width="50" height="20" as="geometry" />
        </mxCell>
        <mxCell id="sGhvdIKNYU4xV770iTYP-159" value="-" style="rounded=0;whiteSpace=wrap;html=1;strokeColor=#000000;fontColor=#000000;" vertex="1" parent="1">
          <mxGeometry x="320" y="1140" width="50" height="20" as="geometry" />
        </mxCell>
        <mxCell id="sGhvdIKNYU4xV770iTYP-160" value="12" style="rounded=0;whiteSpace=wrap;html=1;fontColor=#000000;strokeColor=#000000;" vertex="1" parent="1">
          <mxGeometry x="250" y="1140" width="50" height="20" as="geometry" />
        </mxCell>
        <mxCell id="sGhvdIKNYU4xV770iTYP-162" value="4" style="rounded=0;whiteSpace=wrap;html=1;fontColor=#000000;strokeColor=#000000;" vertex="1" parent="1">
          <mxGeometry x="400" y="1140" width="50" height="20" as="geometry" />
        </mxCell>
        <mxCell id="sGhvdIKNYU4xV770iTYP-163" value="" style="group" vertex="1" connectable="0" parent="1">
          <mxGeometry x="520" y="1145" width="50" height="50" as="geometry" />
        </mxCell>
        <mxCell id="sGhvdIKNYU4xV770iTYP-164" value="8" style="rounded=0;whiteSpace=wrap;html=1;" vertex="1" parent="sGhvdIKNYU4xV770iTYP-163">
          <mxGeometry width="50" height="20" as="geometry" />
        </mxCell>
        <mxCell id="sGhvdIKNYU4xV770iTYP-165" value="操作数栈" style="text;html=1;strokeColor=none;fillColor=none;align=center;verticalAlign=middle;whiteSpace=wrap;rounded=0;" vertex="1" parent="sGhvdIKNYU4xV770iTYP-163">
          <mxGeometry y="20" width="50" height="30" as="geometry" />
        </mxCell>
        <mxCell id="sGhvdIKNYU4xV770iTYP-166" value="" style="group" vertex="1" connectable="0" parent="1">
          <mxGeometry x="590" y="1145" width="50" height="50" as="geometry" />
        </mxCell>
        <mxCell id="sGhvdIKNYU4xV770iTYP-167" value="+" style="rounded=0;whiteSpace=wrap;html=1;" vertex="1" parent="sGhvdIKNYU4xV770iTYP-166">
          <mxGeometry width="50" height="20" as="geometry" />
        </mxCell>
        <mxCell id="sGhvdIKNYU4xV770iTYP-168" value="符号栈" style="text;html=1;strokeColor=none;fillColor=none;align=center;verticalAlign=middle;whiteSpace=wrap;rounded=0;" vertex="1" parent="sGhvdIKNYU4xV770iTYP-166">
          <mxGeometry y="20" width="50" height="30" as="geometry" />
        </mxCell>
        <mxCell id="sGhvdIKNYU4xV770iTYP-170" value="8" style="rounded=0;whiteSpace=wrap;html=1;" vertex="1" parent="1">
          <mxGeometry x="520" y="1125" width="50" height="20" as="geometry" />
        </mxCell>
        <mxCell id="sGhvdIKNYU4xV770iTYP-172" value="" style="group" vertex="1" connectable="0" parent="1">
          <mxGeometry x="60" y="1290" width="50" height="50" as="geometry" />
        </mxCell>
        <mxCell id="sGhvdIKNYU4xV770iTYP-173" value="8" style="rounded=0;whiteSpace=wrap;html=1;strokeColor=#CCCCCC;dashed=1;fontColor=#CCCCCC;" vertex="1" parent="sGhvdIKNYU4xV770iTYP-172">
          <mxGeometry width="50" height="20" as="geometry" />
        </mxCell>
        <mxCell id="sGhvdIKNYU4xV770iTYP-174" value="操作数栈" style="text;html=1;strokeColor=none;fillColor=none;align=center;verticalAlign=middle;whiteSpace=wrap;rounded=0;" vertex="1" parent="sGhvdIKNYU4xV770iTYP-172">
          <mxGeometry y="20" width="50" height="30" as="geometry" />
        </mxCell>
        <mxCell id="sGhvdIKNYU4xV770iTYP-175" value="" style="group" vertex="1" connectable="0" parent="1">
          <mxGeometry x="130" y="1290" width="50" height="50" as="geometry" />
        </mxCell>
        <mxCell id="sGhvdIKNYU4xV770iTYP-176" value="+" style="rounded=0;whiteSpace=wrap;html=1;strokeColor=#CCCCCC;dashed=1;fontColor=#CCCCCC;" vertex="1" parent="sGhvdIKNYU4xV770iTYP-175">
          <mxGeometry width="50" height="20" as="geometry" />
        </mxCell>
        <mxCell id="sGhvdIKNYU4xV770iTYP-177" value="符号栈" style="text;html=1;strokeColor=none;fillColor=none;align=center;verticalAlign=middle;whiteSpace=wrap;rounded=0;" vertex="1" parent="sGhvdIKNYU4xV770iTYP-175">
          <mxGeometry y="20" width="50" height="30" as="geometry" />
        </mxCell>
        <mxCell id="sGhvdIKNYU4xV770iTYP-178" value="8" style="rounded=0;whiteSpace=wrap;html=1;strokeColor=#CCCCCC;dashed=1;fontColor=#CCCCCC;" vertex="1" parent="1">
          <mxGeometry x="60" y="1270" width="50" height="20" as="geometry" />
        </mxCell>
        <mxCell id="sGhvdIKNYU4xV770iTYP-179" value="8" style="rounded=0;whiteSpace=wrap;html=1;" vertex="1" parent="1">
          <mxGeometry x="250" y="1280" width="50" height="20" as="geometry" />
        </mxCell>
        <mxCell id="sGhvdIKNYU4xV770iTYP-180" value="" style="group" vertex="1" connectable="0" parent="1">
          <mxGeometry x="320" y="1280" width="50" height="50" as="geometry" />
        </mxCell>
        <mxCell id="sGhvdIKNYU4xV770iTYP-181" value="+" style="rounded=0;whiteSpace=wrap;html=1;" vertex="1" parent="sGhvdIKNYU4xV770iTYP-180">
          <mxGeometry width="50" height="20" as="geometry" />
        </mxCell>
        <mxCell id="sGhvdIKNYU4xV770iTYP-183" value="8" style="rounded=0;whiteSpace=wrap;html=1;" vertex="1" parent="1">
          <mxGeometry x="400" y="1280" width="50" height="20" as="geometry" />
        </mxCell>
        <mxCell id="sGhvdIKNYU4xV770iTYP-184" value="" style="group" vertex="1" connectable="0" parent="1">
          <mxGeometry x="520" y="1280" width="50" height="50" as="geometry" />
        </mxCell>
        <mxCell id="sGhvdIKNYU4xV770iTYP-185" value="16" style="rounded=0;whiteSpace=wrap;html=1;" vertex="1" parent="sGhvdIKNYU4xV770iTYP-184">
          <mxGeometry width="50" height="20" as="geometry" />
        </mxCell>
        <mxCell id="sGhvdIKNYU4xV770iTYP-186" value="操作数栈" style="text;html=1;strokeColor=none;fillColor=none;align=center;verticalAlign=middle;whiteSpace=wrap;rounded=0;" vertex="1" parent="sGhvdIKNYU4xV770iTYP-184">
          <mxGeometry y="20" width="50" height="30" as="geometry" />
        </mxCell>
        <mxCell id="sGhvdIKNYU4xV770iTYP-187" value="" style="group" vertex="1" connectable="0" parent="1">
          <mxGeometry x="590" y="1280" width="50" height="50" as="geometry" />
        </mxCell>
        <mxCell id="sGhvdIKNYU4xV770iTYP-188" value="" style="rounded=0;whiteSpace=wrap;html=1;" vertex="1" parent="sGhvdIKNYU4xV770iTYP-187">
          <mxGeometry width="50" height="20" as="geometry" />
        </mxCell>
        <mxCell id="sGhvdIKNYU4xV770iTYP-189" value="符号栈" style="text;html=1;strokeColor=none;fillColor=none;align=center;verticalAlign=middle;whiteSpace=wrap;rounded=0;" vertex="1" parent="sGhvdIKNYU4xV770iTYP-187">
          <mxGeometry y="20" width="50" height="30" as="geometry" />
        </mxCell>
      </root>
    </mxGraphModel>
  </diagram>
</mxfile>
